<svg width="80" height="45" viewBox="0 0 80 45" fill="none" xmlns="http://www.w3.org/2000/svg">
<g clip-path="url(#clip0_67_332)">
<path d="M47.3514 35.6227C47.3514 37.3734 45.9322 38.7927 44.1814 38.7927H5.06069C2.81803 38.7927 1 36.9747 1 34.732V11.9148C1 9.67214 2.81803 7.85411 5.06069 7.85411H43.3888C45.5773 7.85411 47.3514 9.62824 47.3514 11.8167M47.9663 3.78918C47.9663 3.78918 48.7447 4.05941 49.8633 5.16881C50.9818 6.27822 51.4728 7.41071 51.4728 7.41071" stroke="#354972" stroke-width="2.03034" stroke-linecap="round"/>
<path d="M9.84545 15.192H13.2103L15.7848 31H13.3006L12.849 27.861V27.9061H10.0261L9.57445 31H7.271L9.84545 15.192ZM12.5554 25.7608L11.4488 17.9471H11.4037L10.3197 25.7608H12.5554ZM21.0549 15.192H27.6265V17.4502H23.539V21.8539H26.7458V24.1122H23.539V31H21.0549V15.192ZM36.383 31.2258C35.1937 31.2258 34.2828 30.8871 33.6505 30.2096C33.0332 29.5321 32.7246 28.5761 32.7246 27.3416V18.8504C32.7246 17.6159 33.0332 16.6598 33.6505 15.9824C34.2828 15.3049 35.1937 14.9661 36.383 14.9661C37.5724 14.9661 38.4757 15.3049 39.093 15.9824C39.7253 16.6598 40.0415 17.6159 40.0415 18.8504V20.5215H37.6928V18.6923C37.6928 17.7137 37.2788 17.2244 36.4508 17.2244C35.6227 17.2244 35.2087 17.7137 35.2087 18.6923V27.5222C35.2087 28.4858 35.6227 28.9675 36.4508 28.9675C37.2788 28.9675 37.6928 28.4858 37.6928 27.5222V25.1059H40.0415V27.3416C40.0415 28.5761 39.7253 29.5321 39.093 30.2096C38.4757 30.8871 37.5724 31.2258 36.383 31.2258Z" fill="#2C2F6D"/>
<path d="M48.822 31.2258C47.6176 31.2258 46.7067 30.8871 46.0894 30.2096C45.4722 29.5171 45.1635 28.5309 45.1635 27.2512V26.3479H47.5122V27.4319C47.5122 28.4557 47.9412 28.9675 48.7994 28.9675C49.2209 28.9675 49.5371 28.8471 49.7479 28.6062C49.9737 28.3503 50.0866 27.9438 50.0866 27.3867C50.0866 26.7243 49.9361 26.1447 49.635 25.6478C49.3339 25.136 48.7768 24.5262 47.9638 23.8186C46.9401 22.9153 46.2249 22.1023 45.8185 21.3797C45.412 20.642 45.2087 19.8139 45.2087 18.8956C45.2087 17.646 45.5249 16.6824 46.1572 16.0049C46.7895 15.3124 47.7079 14.9661 48.9123 14.9661C50.1017 14.9661 50.9975 15.3124 51.5997 16.0049C52.2169 16.6824 52.5256 17.661 52.5256 18.9407V19.5956H50.177V18.7826C50.177 18.2406 50.0716 17.8492 49.8608 17.6083C49.65 17.3524 49.3414 17.2244 48.9349 17.2244C48.1069 17.2244 47.6928 17.7288 47.6928 18.7375C47.6928 19.3096 47.8434 19.844 48.1445 20.3409C48.4607 20.8377 49.0252 21.4399 49.8382 22.1475C50.877 23.0508 51.5922 23.8713 51.9836 24.609C52.375 25.3467 52.5707 26.2124 52.5707 27.2061C52.5707 28.5008 52.2471 29.4945 51.5997 30.187C50.9674 30.8796 50.0415 31.2258 48.822 31.2258ZM61.6507 31.2258C60.4312 31.2258 59.4978 30.8796 58.8504 30.187C58.203 29.4945 57.8793 28.5159 57.8793 27.2512V18.9407C57.8793 17.6761 58.203 16.6975 58.8504 16.0049C59.4978 15.3124 60.4312 14.9661 61.6507 14.9661C62.8701 14.9661 63.8036 15.3124 64.451 16.0049C65.0983 16.6975 65.422 17.6761 65.422 18.9407V27.2512C65.422 28.5159 65.0983 29.4945 64.451 30.187C63.8036 30.8796 62.8701 31.2258 61.6507 31.2258ZM61.6507 28.9675C62.5088 28.9675 62.9379 28.4481 62.9379 27.4093V18.7826C62.9379 17.7438 62.5088 17.2244 61.6507 17.2244C60.7925 17.2244 60.3634 17.7438 60.3634 18.7826V27.4093C60.3634 28.4481 60.7925 28.9675 61.6507 28.9675ZM73.0423 15.192H76.4072L78.9817 31H76.4975L76.0459 27.861V27.9061H73.223L72.7714 31H70.4679L73.0423 15.192ZM75.7523 25.7608L74.6457 17.9471H74.6006L73.5166 25.7608H75.7523Z" fill="#52A3CC"/>
</g>
<defs>
<clipPath id="clip0_67_332">
<rect width="80" height="45" fill="white"/>
</clipPath>
</defs>
</svg>
