<svg width="100" height="100" viewBox="0 0 100 100" fill="none" xmlns="http://www.w3.org/2000/svg">
<path d="M50.0002 59.8C50.8003 59.8 51.4003 59.2 51.4003 58.3999V54.5997C51.4003 53.7996 50.8003 53.1996 50.0002 53.1996C49.2 53.1996 48.6001 53.7996 48.6001 54.5997V58.3999C48.6001 59.1997 49.2 59.8 50.0002 59.8Z" fill="#0A6D9F"/>
<path d="M55.1003 60.7C55.3002 60.7999 55.4005 60.7999 55.6003 60.7999C56.2003 60.7999 56.7003 60.4998 56.9005 59.8998L58.2007 56.2999C58.5008 55.6001 58.1008 54.7999 57.4006 54.4998C56.7007 54.1996 55.9005 54.5997 55.6004 55.2999L54.3006 59.0001C54.0004 59.6999 54.4005 60.5001 55.1004 60.6999L55.1003 60.7Z" fill="#0A6D9F"/>
<path d="M43.1 59.9C43.2999 60.4999 43.7999 60.8001 44.4002 60.8001C44.6001 60.8001 44.7003 60.8001 44.9002 60.7002C45.6001 60.4 46.0001 59.7002 45.7003 58.9L44.4002 55.3001C44.1 54.6002 43.4002 54.2002 42.6 54.4999C41.9001 54.8001 41.5001 55.4999 41.7999 56.3001L43.1 59.9Z" fill="#0A6D9F"/>
<path d="M50.0002 72.9C49.2 72.9 48.6001 73.5 48.6001 74.3001V78.1003C48.6001 78.9004 49.2 79.5004 50.0002 79.5004C50.8003 79.5004 51.4003 78.9004 51.4003 78.1003V74.3001C51.4003 73.5 50.8003 72.9 50.0002 72.9Z" fill="#0A6D9F"/>
<path d="M44.9004 72C44.2005 71.6999 43.4004 72.0999 43.1002 72.8001L41.8001 76.4001C41.4999 77.0999 41.9 77.9001 42.6002 78.2002C42.8001 78.3002 42.9003 78.3002 43.1002 78.3002C43.7001 78.3002 44.2001 78 44.4004 77.4001L45.7005 73.8002C46.0003 73 45.6003 72.3002 44.9004 72Z" fill="#0A6D9F"/>
<path d="M56.9002 72.8C56.6 72.1001 55.9002 71.7 55.1 71.9998C54.4001 72.3 54.0001 72.9998 54.2999 73.8L55.6 77.3999C55.7999 77.9998 56.2999 78.3 56.9002 78.3C57.1001 78.3 57.2003 78.3 57.4002 78.2001C58.1001 77.8999 58.5001 77.2001 58.2003 76.3999L56.9002 72.8Z" fill="#0A6D9F"/>
<path d="M94.7 49.3C96.7999 46.8999 97.7999 43.7001 97.3998 40.6L96.5997 34.6999C96.2995 32.7998 95.1996 31.1 93.5997 30.1999V26.1C93.5997 24.1999 92.3998 22.2998 90.5997 21.6999C89.1996 21.1999 87.7995 21.6 86.7995 22.2999C85.9994 21.1999 84.6996 20.4997 83.2995 20.4997C81.8994 20.4997 80.5997 21.1996 79.7995 22.2999C79.0996 21.7999 78.1996 21.4997 77.2995 21.4997C75.8994 21.4997 74.6996 22.1996 73.8994 23.1996C73.1995 22.6996 72.2995 22.3994 71.2995 22.3994C68.8994 22.3994 66.8994 24.3994 66.8994 26.7995V31.4993C66.8994 31.9993 66.9993 32.3994 67.0993 32.8994C65.9994 37.5993 65.7991 42.7994 65.8994 46.3994C65.8994 49.8994 67.6996 53.0993 70.6996 54.8994L71.2995 55.2995V60.2995L71.0001 60.2998C70.1999 60.2998 69.6 60.8998 69.6 61.6999V64.9997H66.7998C66.5999 63.2999 65.1 61.8998 63.2998 61.8998H60.6999C58.8997 61.8998 57.5001 63.2 57.1999 64.9997H53.7998C53.4997 64.9997 53.2998 65.1996 53.2998 65.4997V67.2999C53.2998 67.6 53.4997 67.7999 53.7998 67.7999H57.1999C57.3998 69.4997 58.8997 70.8998 60.6999 70.8998H63.2998C65.1 70.8998 66.6 69.5997 66.7998 67.7999H69.6V71.2C69.6 72.0001 70.1999 72.6001 71.0001 72.6001H71.1999V77.5002C71.1999 78.3003 71.7999 78.9002 72.6 78.9002C73.4001 78.9002 74.0001 78.3003 74.0001 77.5002V72.6001H86.8001V77.5002C86.8001 78.3003 87.4 78.9002 88.2002 78.9002C89.0003 78.9002 89.6003 78.3003 89.6003 77.5002V72.6001H89.8001C90.6003 72.6001 91.2002 72.0001 91.2002 71.2V61.6C91.2002 60.7999 90.6003 60.1999 89.8001 60.1999H89.6003V55.1999L94.7 49.3ZM64.1 67.3C64.1 67.7001 63.7998 68.1001 63.2998 68.1001H60.6999C60.2998 68.1001 59.8998 67.8 59.8998 67.3V65.3999C59.8998 64.9999 60.1999 64.5998 60.6999 64.5998H63.2998C63.6999 64.5998 64.1 64.8999 64.1 65.3999V67.3ZM87.6 25.9C87.6 24.9999 88.2998 24.3001 89.1999 24.3001C90.1 24.3001 90.7998 25 90.7998 25.9V29.3001H90.2998L87.4996 29.4L87.4999 25.9L87.6 25.9ZM81.6 24.9C81.6 23.9999 82.2998 23.3001 83.1999 23.3001C84.1 23.3001 84.7998 24 84.7998 24.9V29.4H83.2998C82.6999 29.4 82.1 29.5999 81.6 29.8001V24.9ZM75.6 25.9C75.6 24.9999 76.2998 24.3001 77.1999 24.3001C78.1 24.3001 78.7998 25 78.7998 25.9V32.3001C78.7998 33.2002 78.0999 33.9 77.1999 33.9C76.2998 33.9 75.6 33.2001 75.6 32.3001V25.9ZM69.6 26.6998C69.6 25.7997 70.2998 25.0999 71.1999 25.0999C72.1 25.0999 72.7998 25.7998 72.7998 26.6998V31.3997C72.7998 32.2997 72.0999 32.9996 71.1999 32.9996C70.2998 32.9996 69.6 32.2997 69.6 31.3997V26.6998ZM88.4 69.7998H72.4V62.9997H88.4V69.7998ZM87.0998 53.7998C86.8999 54.1 86.7997 54.3998 86.7997 54.6999V60.1999L73.9997 60.1996V54.3994C73.9997 53.8994 73.7998 53.4993 73.3997 53.1996L72.0996 52.3994C69.8997 50.9994 68.5996 48.6996 68.5996 46.1996C68.5996 43.2995 68.6995 39.1996 69.3997 35.3996C69.9996 35.6997 70.5995 35.7997 71.2998 35.7997C72.2998 35.7997 73.0999 35.4995 73.8997 34.8996C74.6998 35.8996 75.8997 36.5994 77.2998 36.5994C78.1999 36.5994 78.9996 36.2993 79.6999 35.8996C79.8997 36.2996 80.1999 36.5994 80.5 36.8996C81.1999 37.5994 82.0999 37.9995 83 38.0994C80.5 40.6993 80 43.8996 80.1998 45.7992C80.2998 46.4991 80.8997 46.9991 81.5999 46.9991H81.7998C82.5999 46.8991 83.0999 46.1989 82.9996 45.4991C82.9996 45.2992 82.5995 40.4991 87.4996 38.2992L87.6995 39.8991C87.7994 40.6993 88.4996 41.1993 89.2994 41.099C90.0995 40.999 90.5996 40.2988 90.4992 39.4991L89.9992 36.3991C89.8993 35.6993 89.2994 35.1993 88.5991 35.1993L83.6991 35.3992C83.299 35.3992 82.799 35.2992 82.4992 34.9991C82.1991 34.699 81.9992 34.2992 81.9992 33.7993C81.9992 32.8992 82.6991 32.1994 83.5991 32.1994L90.6991 32.0994C92.3989 32.0994 93.8989 33.2993 94.0991 34.9995L94.8993 40.8996C95.1994 43.2997 94.4992 45.6998 92.8993 47.4995L87.0998 53.7998Z" fill="#0A6D9F"/>
<path d="M46.1002 65H42.7001C42.5002 63.3002 41.0003 61.9001 39.2001 61.9001H36.6002C34.8 61.9001 33.4004 63.2002 33.1002 65H30.3V61.5999C30.3 60.7998 29.7001 60.1998 28.8999 60.1998H28.7001V55.1998L29.3 54.7998C32.3 52.8997 34.1002 49.7998 34.1002 46.2998C34.1002 42.6998 33.9003 37.4998 32.9003 32.7998C33.0003 32.3997 33.1002 31.8997 33.1002 31.3997V26.6998C33.1002 24.2998 31.1002 22.2998 28.7001 22.2998C27.7001 22.2998 26.9 22.5999 26.1002 23.0999C25.3001 22.0999 24.1002 21.4001 22.7001 21.4001C21.8 21.4001 20.9 21.7002 20.2001 22.2002C19.4 21.1003 18.1002 20.4 16.7001 20.4C15.3 20.4 14.0003 21.0999 13.2001 22.2002C12.2001 21.5003 10.8 21.2002 9.39995 21.6003C7.49987 22.2002 6.39995 24.0003 6.39995 26.0003V30.1003C4.80004 31.0003 3.70012 32.7002 3.39995 34.6003L2.59982 40.5003C2.19975 43.7002 3.19975 46.8005 5.29965 49.2003L10.4995 55.1004V60.1004H10.2996C9.49949 60.1004 8.89954 60.7004 8.89954 61.5005V71.1005C8.89954 71.9006 9.49947 72.5006 10.2996 72.5006H10.4995V77.4007C10.4995 78.2008 11.0994 78.8008 11.8996 78.8008C12.6997 78.8008 13.2997 78.2008 13.2997 77.4007V72.5006L26.0005 72.5003V77.4004C26.0005 78.2005 26.6004 78.8004 27.4006 78.8004C28.2007 78.8004 28.8007 78.2005 28.8007 77.4004V72.5003H29.0005C29.8007 72.5003 30.4006 71.9003 30.4006 71.1002V67.7001H33.2008C33.4006 69.3999 34.9006 70.8 36.7008 70.8H39.3007C41.1009 70.8 42.6009 69.4999 42.8007 67.7001H46.2008C46.5009 67.7001 46.7008 67.5002 46.7008 67.2001V65.3999C46.6005 65.2001 46.4006 65.0002 46.1005 65.0002L46.1002 65ZM27.2002 26.7C27.2002 25.7999 27.9001 25.1001 28.8001 25.1001C29.7002 25.1001 30.4 25.7999 30.4 26.7V31.3998C30.4 32.2999 29.7002 32.9997 28.8001 32.9997C27.9 32.9997 27.2002 32.2999 27.2002 31.3998V26.7ZM21.1003 25.9002C21.1003 25.0001 21.8001 24.3003 22.7002 24.3003C23.6003 24.3003 24.3001 25.0001 24.3001 25.9002V32.3003C24.3001 33.2003 23.6002 33.9002 22.7002 33.9002C21.8001 33.9002 21.1003 33.2003 21.1003 32.3003V25.9002ZM15.1003 24.9002C15.1003 24.0001 15.8001 23.3003 16.7002 23.3003C17.6003 23.3003 18.3001 24.0001 18.3001 24.9002V29.9002C17.8001 29.7003 17.2002 29.5001 16.6003 29.5001H15.1003V24.9002ZM9.10027 25.9002C9.10027 25.0001 9.80013 24.3003 10.7002 24.3003C11.6003 24.3003 12.3001 25.0001 12.3001 25.9002V29.4002L9.49994 29.3002H8.99994L9.00026 25.9002L9.10027 25.9002ZM27.6003 69.8002H11.6003V63H27.6003V69.8002ZM27.9004 52.4002L26.6002 53.2003C26.2002 53.5004 26.0003 53.9002 26.0003 54.4001V60.2003L13.2003 60.2V54.7C13.2003 54.3999 13.1004 54.0001 12.9002 53.7999L7.30025 47.4997C5.70034 45.6996 5.00009 43.2999 5.30025 40.8998L6.10039 35.0001C6.30058 33.3002 7.80055 32.0001 9.50047 32.0001L16.6004 32.1C17.5005 32.1 18.2003 32.7999 18.2003 33.6999C18.2003 34.1 18.0004 34.6 17.7003 34.8998C17.4002 35.1999 17.0004 35.2998 16.5005 35.2998L11.6004 35.1C10.9005 35.1 10.3002 35.6 10.2003 36.2998L9.7003 39.3997C9.60037 40.1998 10.1004 40.8997 10.9001 40.9996C11.6 41.0996 12.4001 40.5996 12.5001 39.7998L12.6999 38.1999C17.5001 40.5 17.1999 45.1999 17.1999 45.3997C17.1 46.0996 17.6999 46.7998 18.3998 46.8997H18.5996C19.2995 46.8997 19.8998 46.3997 19.9997 45.6999C20.1996 43.7998 19.6996 40.6 17.1995 38C18.0996 37.9001 18.9997 37.5 19.6995 36.8002C19.9997 36.5001 20.2995 36.2003 20.4997 35.8002C21.1995 36.3002 21.9997 36.5001 22.8998 36.5001C24.2998 36.5001 25.4997 35.8002 26.2998 34.8002C26.9997 35.3002 27.8998 35.7003 28.8998 35.7003C29.5996 35.7003 30.1999 35.5005 30.7998 35.3003C31.4997 39.2003 31.6 43.2003 31.6 46.1003C31.4004 48.8001 30.1003 51.0999 27.9004 52.4001L27.9004 52.4002ZM40.0004 67.3002C40.0004 67.7002 39.7003 68.1003 39.2003 68.1003H36.6004C36.2003 68.1003 35.8002 67.8002 35.8002 67.3002V65.4001C35.8002 65 36.1004 64.6 36.6004 64.6H39.2003C39.6003 64.6 40.0004 64.9001 40.0004 65.4001V67.3002Z" fill="#0A6D9F"/>
</svg>
