<svg width="100" height="100" viewBox="0 0 100 100" fill="none" xmlns="http://www.w3.org/2000/svg">
<path d="M17.1873 83.3516V95.3121C17.1873 96.1765 17.8876 96.8746 18.7498 96.8746H32.8123C33.6744 96.8746 34.3748 96.1765 34.3748 95.3121V70.3121C34.3748 69.8963 34.2107 69.4996 33.917 69.2074L14.0615 49.3519V30.4675C14.0615 27.4517 11.6086 24.9988 8.59277 24.9988C5.57695 24.9988 3.12402 27.4517 3.12402 30.4675V64.8425C3.12402 65.1927 3.24152 65.5299 3.45514 65.8054L17.1873 83.3516ZM6.24977 30.4687C6.24977 29.1763 7.30109 28.125 8.59352 28.125C9.88594 28.125 10.9373 29.1763 10.9373 30.4687V50C10.9373 50.4158 11.1013 50.8125 11.395 51.1047L13.6611 53.3707C11.1861 54.1032 9.37492 56.3989 9.37492 59.1065C9.37492 60.7048 9.99672 62.2063 11.1282 63.3362L20.7702 72.9797L22.9795 70.7703L13.336 61.1268C12.8042 60.5935 12.4998 59.8595 12.4998 59.1065C12.4998 57.531 13.7808 56.25 15.3578 56.25C16.1032 56.25 16.8028 56.5331 17.3393 57.0488L31.25 70.9596V93.7506H20.3125V82.8131C20.3125 82.4629 20.195 82.1257 19.9814 81.8502L6.24994 64.3049L6.24977 30.4687Z" fill="#538AAF"/>
<path d="M91.4062 25C88.3904 25 85.9375 27.4529 85.9375 30.4688V49.3531L80.4687 54.8219C80.4496 54.8409 80.4313 54.8577 80.4123 54.8768L66.0828 69.2079C65.789 69.5001 65.625 69.8968 65.625 70.3126V95.3126C65.625 96.177 66.3254 96.8751 67.1875 96.8751H81.25C82.1121 96.8751 82.8125 96.177 82.8125 95.3126V83.352L96.5439 65.8067C96.7576 65.5313 96.8751 65.1941 96.8751 64.8439V30.4689C96.8751 27.4531 94.422 25 91.4062 25ZM93.75 64.3047L80.0185 81.85C79.8049 82.1254 79.6874 82.4626 79.6874 82.8128V93.7503H68.7499V70.9593L82.6607 57.0486C83.197 56.5328 83.8981 56.2498 84.6421 56.2498C86.2191 56.2498 87.5001 57.5308 87.5001 59.1062C87.5001 59.8577 87.1957 60.594 86.6624 61.1265L77.0204 70.7701L79.2298 72.9795L88.8718 63.3359C90.0032 62.206 90.625 60.706 90.625 59.1062C90.625 56.3986 88.8138 54.1029 86.3389 53.3705L88.6049 51.1045C88.8986 50.8123 89.0627 50.4155 89.0627 49.9997V30.4685C89.0627 29.1761 90.114 28.1247 91.4064 28.1247C92.6988 28.1247 93.7502 29.1761 93.7502 30.4685L93.75 64.3047Z" fill="#538AAF"/>
<path d="M48.4375 56.25H51.5625V50H53.125V46.875H46.875V50H48.4375V56.25Z" fill="#538AAF"/>
<path d="M17.1875 7.81249C17.1875 5.22851 15.084 3.12499 12.5 3.12499C9.91602 3.12499 7.8125 5.22851 7.8125 7.81249C7.8125 9.84648 9.12322 11.5654 10.9375 12.2123V17.1875C10.9375 17.6033 11.1015 18 11.3953 18.2922L20.3468 27.2438C20.7016 32.9559 25.4486 37.5 31.25 37.5H40.625V40.625H39.0625C38.2003 40.625 37.5 41.3231 37.5 42.1875V60.9375C37.5 61.8019 38.2003 62.5 39.0625 62.5H60.9375C61.7996 62.5 62.5 61.8019 62.5 60.9375V42.1875C62.5 41.3231 61.7996 40.625 60.9375 40.625H59.375V37.5H68.75C74.5513 37.5 79.2984 32.9559 79.6531 27.2438L88.6046 18.2922C88.8984 18 89.0624 17.6033 89.0624 17.1875V12.2123C90.8767 11.5653 92.1874 9.84648 92.1874 7.81249C92.1874 5.22851 90.0839 3.12499 87.4999 3.12499C84.9159 3.12499 82.8124 5.22851 82.8124 7.81249C82.8124 9.84648 84.1231 11.5654 85.9374 12.2123V16.5404L79.1862 23.2916C78.6644 21.6292 77.7519 20.1398 76.5624 18.923V12.2123C78.3767 11.5653 79.6874 9.84648 79.6874 7.81249C79.6874 5.22851 77.5839 3.12499 74.9999 3.12499C72.4159 3.12499 70.3124 5.22851 70.3124 7.81249C70.3124 9.84648 71.6231 11.5654 73.4374 12.2123V16.6953C72.0138 16.017 70.43 15.6249 68.7499 15.6249C68.1831 15.6249 67.617 15.6699 67.0577 15.7592C66.384 12.133 63.195 9.3748 59.3749 9.3748C58.6402 9.3748 57.9139 9.48237 57.2028 9.69827C54.6394 5.61038 50.2028 3.12484 45.3124 3.12484C38.1247 3.12484 32.18 8.54554 31.3544 15.6248C29.634 15.589 28.012 15.9735 26.5624 16.6594V12.2121C28.3767 11.5651 29.6874 9.8463 29.6874 7.81232C29.6874 5.22833 27.5839 3.12482 24.9999 3.12482C22.4159 3.12482 20.3124 5.22833 20.3124 7.81232C20.3124 9.8463 21.6231 11.5652 23.4374 12.2121V18.8887C22.2434 20.114 21.3294 21.6139 20.8091 23.2871L14.0624 16.5404V12.2123C15.8767 11.5653 17.1875 9.84648 17.1875 7.81249ZM87.5 6.24999C88.3606 6.24999 89.0625 6.95036 89.0625 7.81249C89.0625 8.67462 88.3606 9.37499 87.5 9.37499C86.6394 9.37499 85.9375 8.67462 85.9375 7.81249C85.9375 6.95036 86.6394 6.24999 87.5 6.24999ZM59.375 59.375H40.625V43.75H59.375V59.375ZM75 6.24999C75.8606 6.24999 76.5625 6.95036 76.5625 7.81249C76.5625 8.67462 75.8606 9.37499 75 9.37499C74.1394 9.37499 73.4375 8.67462 73.4375 7.81249C73.4375 6.95036 74.1394 6.24999 75 6.24999ZM25 6.24999C25.8606 6.24999 26.5625 6.95036 26.5625 7.81249C26.5625 8.67462 25.8606 9.37499 25 9.37499C24.1394 9.37499 23.4375 8.67462 23.4375 7.81249C23.4375 6.95036 24.1394 6.24999 25 6.24999ZM31.25 18.75C31.6559 18.75 32.0846 18.7889 32.5562 18.869C33.0109 18.9522 33.4717 18.75 33.8234 18.4517C34.1751 18.1534 34.375 17.6483 34.375 17.1875C34.375 11.158 39.2814 6.24999 45.3125 6.24999C49.4949 6.24999 53.2502 8.58925 55.1109 12.3551C55.2971 12.7304 55.6267 13.0173 56.0249 13.147C56.4201 13.2767 56.8565 13.2424 57.2296 13.0501C57.9346 12.6847 58.6563 12.5 59.3749 12.5C61.9589 12.5 64.0624 14.6035 64.0624 17.186C64.0609 17.2378 64.0518 17.289 64.0434 17.3424L64.0106 17.6094C63.9602 18.1419 64.1868 18.6638 64.6102 18.9903C65.0337 19.3184 65.5944 19.4061 66.098 19.223C66.9654 18.9094 67.8581 18.75 68.7499 18.75C73.0575 18.75 76.5624 22.2549 76.5624 26.5625C76.5624 30.8701 73.0575 34.375 68.7499 34.375H46.8749V37.5H56.2499V40.625H43.7499V34.375C43.7499 30.9281 46.553 28.125 49.9999 28.125V25C44.8294 25 40.6249 29.2045 40.6249 34.375H31.2499C26.9423 34.375 23.4374 30.8701 23.4374 26.5625C23.4374 22.2549 26.9424 18.75 31.25 18.75ZM12.5 6.24999C13.3606 6.24999 14.0625 6.95036 14.0625 7.81249C14.0625 8.67462 13.3606 9.37499 12.5 9.37499C11.6394 9.37499 10.9375 8.67462 10.9375 7.81249C10.9375 6.95036 11.6394 6.24999 12.5 6.24999Z" fill="#538AAF"/>
</svg>
