<svg width="100" height="100" viewBox="0 0 100 100" fill="none" xmlns="http://www.w3.org/2000/svg">
<path d="M20.3125 7.81254V9.37504H18.75C17.5072 9.37504 16.3147 9.86865 15.4358 10.7483C14.5561 11.6272 14.0625 12.8196 14.0625 14.0626V92.1876C14.0625 93.4304 14.5561 94.6229 15.4358 95.5018C16.3147 96.3815 17.5071 96.8751 18.75 96.8751H75C76.2429 96.8751 77.4354 96.3815 78.3143 95.5018C79.194 94.6229 79.6876 93.4306 79.6876 92.1876V90.6251H81.2501C82.4929 90.6251 83.6854 90.1315 84.5643 89.2518C85.444 88.3729 85.9376 87.1805 85.9376 85.9375V7.81254C85.9376 6.56971 85.444 5.37719 84.5643 4.49828C83.6854 3.61861 82.493 3.125 81.2501 3.125H25.0001C23.7572 3.125 22.5647 3.61861 21.6858 4.49828C20.8062 5.37719 20.3125 6.56957 20.3125 7.81254ZM76.5625 92.1875C76.5625 92.6018 76.3977 92.9993 76.1048 93.2923C75.8118 93.5852 75.4143 93.75 75 93.75H18.75C17.8871 93.75 17.1875 93.0504 17.1875 92.1875V14.0625C17.1875 13.1996 17.8871 12.5 18.75 12.5H75C75.4143 12.5 75.8118 12.6648 76.1048 12.9578C76.3977 13.2508 76.5625 13.6483 76.5625 14.0625V92.1875ZM82.8125 7.81254V85.9375C82.8125 86.3518 82.6477 86.7493 82.3548 87.0423C82.0618 87.3352 81.6643 87.5 81.25 87.5H79.6875V14.0625C79.6875 12.8197 79.1939 11.6272 78.3143 10.7483C77.4353 9.86861 76.243 9.375 75 9.375H23.4375V7.8125C23.4375 6.94961 24.1371 6.25 25 6.25H81.25C81.6643 6.25 82.0618 6.4148 82.3547 6.70777C82.6477 7.00075 82.8125 7.39828 82.8125 7.81254Z" fill="#538AAF"/>
<path d="M20.3125 62.5H26.5625V65.625H20.3125V62.5Z" fill="#538AAF"/>
<path d="M29.6875 62.5H64.0625V65.625H29.6875V62.5Z" fill="#538AAF"/>
<path d="M67.1875 62.5H73.4375V65.625H67.1875V62.5Z" fill="#538AAF"/>
<path d="M20.3125 81.25H26.5625V84.375H20.3125V81.25Z" fill="#538AAF"/>
<path d="M29.6875 81.25H64.0625V84.375H29.6875V81.25Z" fill="#538AAF"/>
<path d="M67.1875 81.25H73.4375V84.375H67.1875V81.25Z" fill="#538AAF"/>
<path d="M20.3125 56.25H73.4375V59.375H20.3125V56.25Z" fill="#538AAF"/>
<path d="M20.3125 68.75H73.4375V71.875H20.3125V68.75Z" fill="#538AAF"/>
<path d="M20.3125 75H73.4375V78.125H20.3125V75Z" fill="#538AAF"/>
<path d="M20.3125 87.5H73.4375V90.625H20.3125V87.5Z" fill="#538AAF"/>
<path d="M46.875 37.5C48.9471 37.5 50.9338 36.6768 52.3994 35.2119C53.8643 33.7463 54.6875 31.7596 54.6875 29.6875C54.6875 27.6154 53.8643 25.6287 52.3994 24.1631C50.9338 22.6982 48.9471 21.875 46.875 21.875C44.8029 21.875 42.8162 22.6982 41.3506 24.1631C39.8857 25.6287 39.0625 27.6154 39.0625 29.6875C39.0625 31.7596 39.8857 33.7463 41.3506 35.2119C42.8162 36.6768 44.8029 37.5 46.875 37.5ZM46.875 25C48.1178 25 49.3104 25.4936 50.1893 26.3733C51.0689 27.2522 51.5625 28.4446 51.5625 29.6875C51.5625 30.9305 51.0689 32.1229 50.1893 33.0018C49.3104 33.8815 48.118 34.3751 46.875 34.3751C45.632 34.3751 44.4396 33.8815 43.5607 33.0018C42.6811 32.1229 42.1875 30.9305 42.1875 29.6875C42.1875 28.4446 42.6811 27.2522 43.5607 26.3733C44.4396 25.4936 45.632 25 46.875 25Z" fill="#538AAF"/>
<path d="M34.7189 50L39.0622 48.6718L41.8744 52.4843C42.1666 52.8841 42.6304 53.1213 43.1248 53.1251H43.375H43.3743C43.9564 53.0275 44.434 52.6109 44.6087 52.0471L46.8747 45.0311L49.0933 52.0311C49.268 52.5949 49.7456 53.0122 50.3277 53.1099H50.578C51.0723 53.1061 51.5362 52.868 51.8276 52.469L54.6872 48.6719L59.0778 49.9377C59.621 50.0674 60.1925 49.8972 60.5762 49.4906C60.96 49.0847 61.0973 48.5041 60.9371 47.9693L57.9059 38.3601V38.3593C60.0947 35.5806 61.1561 32.0781 60.8776 28.5509C60.5991 25.0238 59.0015 21.7318 56.4029 19.33C53.8051 16.9291 50.3971 15.5955 46.8594 15.5955C43.3209 15.5955 39.9129 16.9291 37.3151 19.33C34.7164 21.7318 33.119 25.0238 32.8405 28.5509C32.562 32.0781 33.6232 35.5806 35.8121 38.3593L32.8123 47.9693C32.6124 48.5216 32.7398 49.1404 33.1427 49.5692C33.5447 49.9979 34.1543 50.1641 34.7189 50ZM42.6091 48.2186L40.9688 46.0153V46.016C40.6163 45.4423 39.9365 45.1593 39.2812 45.3126L36.656 46.0626L38.3276 40.7655C40.0206 42.0785 41.9942 42.9819 44.0938 43.4061L42.6091 48.2186ZM54.4683 45.3125C53.8404 45.134 53.1675 45.3644 52.7807 45.8908L51.1404 48.0942L49.6557 43.4067V43.4059C51.7553 42.9817 53.7289 42.0784 55.4219 40.7653L57.0935 46.0623L54.4683 45.3125ZM46.8747 18.75C49.7755 18.75 52.558 19.9021 54.6087 21.9535C56.6603 24.0043 57.8122 26.7867 57.8122 29.6875C57.8122 32.5883 56.6602 35.3707 54.6087 37.4215C52.558 39.4731 49.7755 40.625 46.8747 40.625C43.974 40.625 41.1915 39.473 39.1408 37.4215C37.0892 35.3707 35.9372 32.5883 35.9372 29.6875C35.9372 26.7867 37.0893 24.0043 39.1408 21.9535C41.1915 19.902 43.974 18.75 46.8747 18.75Z" fill="#538AAF"/>
</svg>
